<?xml version="1.0" standalone="no"?>
<!DOCTYPE svg PUBLIC "-//W3C//DTD SVG 20010904//EN"
 "http://www.w3.org/TR/2001/REC-SVG-20010904/DTD/svg10.dtd">
<svg version="1.0" xmlns="http://www.w3.org/2000/svg"
 width="288.000000pt" height="288.000000pt" viewBox="0 0 288.000000 288.000000"
 preserveAspectRatio="xMidYMid meet">
<metadata>
Created by potrace 1.11, written by Peter Selinger 2001-2013
</metadata>
<g transform="translate(0.000000,288.000000) scale(0.100000,-0.100000)"
fill="#000000" stroke="none">
<path d="M1288 2765 c-2 -2 -21 -5 -43 -8 -185 -27 -348 -83 -499 -174 -212
-127 -429 -359 -535 -571 -29 -58 -87 -217 -97 -266 -27 -133 -33 -204 -29
-351 4 -162 6 -178 36 -303 55 -225 185 -440 378 -625 199 -191 437 -317 686
-362 22 -4 54 -10 70 -13 41 -8 329 -9 385 0 63 9 149 26 190 39 43 13 53 16
62 18 4 1 48 20 97 41 392 167 730 564 810 950 6 30 14 66 17 80 3 14 7 90 9
170 10 389 -113 692 -394 970 -168 168 -362 289 -555 349 -67 21 -78 23 -146
35 -19 3 -48 9 -65 12 -29 6 -372 14 -377 9z"/>
</g>
</svg>
